<svg width="34" height="34" viewBox="0 0 34 34" fill="none" xmlns="http://www.w3.org/2000/svg">
    <path d="M4.62829 29.8397H28.561C31.4503 29.8397 32.9231 28.3948 32.9231 25.5333V10.9897C32.9231 8.12833 31.4503 6.69762 28.561 6.69762H25.3108C24.2274 6.69762 23.8943 6.47536 23.269 5.78075L22.1435 4.53021C21.4631 3.76685 20.7549 3.34961 19.31 3.34961L13.7815 3.34961C12.3508 3.34961 11.642 3.76685 10.948 4.53021L9.82247 5.78075C9.21142 6.46114 8.86412 6.69762 7.78071 6.69762H4.62769C1.73842 6.69762 0.265625 8.12833 0.265625 10.9897L0.265625 25.5333C0.265625 28.3948 1.73901 29.8397 4.62829 29.8397ZM4.66918 27.603C3.29418 27.603 2.50237 26.8668 2.50237 25.4219L2.50237 11.1148C2.50237 9.66987 3.29418 8.93377 4.66918 8.93377H8.33605C9.58658 8.93377 10.2533 8.69789 10.948 7.9203L12.045 6.69762C12.8368 5.80861 13.2398 5.58635 14.4761 5.58635L18.6154 5.58635C19.8517 5.58635 20.2547 5.80861 21.0465 6.69762L22.1435 7.91971C22.8381 8.69789 23.5049 8.93377 24.7554 8.93377H28.5195C29.8945 8.93377 30.6869 9.66987 30.6869 11.1148V25.4219C30.6869 26.8668 29.8951 27.603 28.5195 27.603H4.66918ZM16.6015 9.89212C14.9343 9.89212 13.2256 10.4895 12.0734 11.4621C11.4339 11.9623 11.2674 12.6563 11.7398 13.1572C12.2115 13.6568 12.8232 13.5874 13.337 13.1844C14.309 12.4068 15.2958 12.0174 16.6015 12.0174C19.2963 12.0174 21.5325 13.8369 22.1299 16.2124H20.6156C19.9909 16.2124 19.838 16.8098 20.199 17.2822L22.38 20.3243C22.7415 20.8246 23.3662 20.866 23.7414 20.3243L25.894 17.2822C26.2419 16.7962 26.1026 16.2124 25.4773 16.2124H24.1302C23.477 12.4762 20.4491 9.89212 16.6015 9.89212ZM7.66988 18.6577H9.1C9.76676 22.394 12.7953 24.978 16.6293 24.978C18.3095 24.978 19.9904 24.3942 21.1716 23.4216C21.8105 22.922 21.977 22.2138 21.5046 21.7136C21.0323 21.2133 20.4212 21.2969 19.8795 21.6857C18.9075 22.4497 17.935 22.8663 16.6293 22.8663C13.9481 22.8663 11.6983 21.0468 11.1145 18.6572H12.5452C13.1562 18.6572 13.3234 18.074 12.9619 17.588L10.7808 14.5594C10.4199 14.0598 9.79461 14.0177 9.42004 14.5594L7.26686 17.588C6.91956 18.074 7.05824 18.6577 7.66988 18.6577Z" fill="#C5C5C5"/>
</svg>
