<svg width="31" height="31" viewBox="0 0 31 31" fill="none" xmlns="http://www.w3.org/2000/svg">
    <path d="M28.002 13.0029H26.975V12.95H15.5V18.05H22.7057C21.6544 21.0188 18.8297 23.15 15.5 23.15C11.2753 23.15 7.85 19.7247 7.85 15.5C7.85 11.2753 11.2753 7.85 15.5 7.85C17.4501 7.85 19.2243 8.58567 20.5751 9.78736L24.1815 6.18103C21.9043 4.05879 18.8584 2.75 15.5 2.75C8.45881 2.75 2.75 8.45881 2.75 15.5C2.75 22.5412 8.45881 28.25 15.5 28.25C22.5412 28.25 28.25 22.5412 28.25 15.5C28.25 14.6451 28.162 13.8106 28.002 13.0029Z" fill="#FFC107"/>
    <path d="M4.22021 9.56551L8.40923 12.6376C9.5427 9.83135 12.2878 7.85 15.5001 7.85C17.4503 7.85 19.2244 8.58568 20.5753 9.78736L24.1816 6.18103C21.9045 4.05879 18.8585 2.75 15.5001 2.75C10.6029 2.75 6.35584 5.51484 4.22021 9.56551Z" fill="#FF3D00"/>
    <path d="M15.5001 28.2505C18.7934 28.2505 21.7859 26.9902 24.0483 24.9406L20.1022 21.6014C18.7791 22.6076 17.1624 23.1519 15.5001 23.1505C12.1838 23.1505 9.36799 21.0359 8.30719 18.085L4.14941 21.2884C6.25954 25.4175 10.5448 28.2505 15.5001 28.2505Z" fill="#4CAF50"/>
    <path d="M28.002 13.0031H26.975V12.9502H15.5V18.0502H22.7057C22.2028 19.4632 21.297 20.6978 20.1002 21.6017L20.1021 21.6004L24.0482 24.9397C23.769 25.1934 28.25 21.8752 28.25 15.5002C28.25 14.6453 28.162 13.8108 28.002 13.0031Z" fill="#1976D2"/>
</svg>
