<svg width="34" height="34" viewBox="0 0 34 34" fill="none" xmlns="http://www.w3.org/2000/svg">
    <path d="M24.3736 6.22333C23.8353 6.22258 23.3036 6.34264 22.8179 6.57468V5.70475C22.8182 4.83955 22.5095 4.00268 21.9474 3.34495C21.3853 2.68722 20.6067 2.25188 19.7521 2.11738C18.8974 1.98288 18.0228 2.15807 17.2858 2.61138C16.5489 3.06468 15.9981 3.7663 15.7326 4.58978C15.1798 4.28993 14.5586 4.13885 13.9298 4.15132C13.3011 4.1638 12.6863 4.33941 12.1458 4.66096C11.6054 4.9825 11.1577 5.43894 10.8467 5.98556C10.5357 6.53217 10.372 7.1502 10.3717 7.7791V16.0765L9.87649 15.2818C9.39545 14.4516 8.60533 13.8457 7.67884 13.5964C6.75236 13.3471 5.76485 13.4747 4.93218 13.9514C4.09951 14.428 3.48939 15.2149 3.2352 16.1401C2.981 17.0652 3.1034 18.0534 3.57564 18.8886C5.64999 23.2667 7.32633 26.3718 9.24381 28.3126C11.1807 30.2781 13.3796 31.1156 16.5948 31.1156C19.6196 31.1121 22.5195 29.909 24.6584 27.7702C26.7972 25.6313 28.0003 22.7314 28.0037 19.7066V9.85345C28.0037 8.89069 27.6213 7.96735 26.9405 7.28657C26.2597 6.60579 25.3364 6.22333 24.3736 6.22333ZM25.9294 19.7066C25.9266 22.1815 24.9423 24.5542 23.1923 26.3042C21.4423 28.0541 19.0696 29.0385 16.5948 29.0412C13.9526 29.0412 12.2503 28.4085 10.7179 26.8567C9.00267 25.1181 7.42357 22.1699 5.43219 17.9668C5.42052 17.9411 5.40754 17.916 5.39329 17.8916C5.18698 17.5341 5.13111 17.1094 5.23797 16.7108C5.34483 16.3122 5.60566 15.9723 5.96309 15.766C6.32052 15.5597 6.74526 15.5038 7.14388 15.6107C7.5425 15.7175 7.88235 15.9784 8.08865 16.3358C8.09393 16.3462 8.1 16.3562 8.10681 16.3656L10.5273 20.255C10.6462 20.4469 10.8245 20.5947 11.035 20.6761C11.2456 20.7575 11.4769 20.768 11.6939 20.7059C11.911 20.6439 12.1018 20.5128 12.2376 20.3324C12.3733 20.1521 12.4465 19.9324 12.4461 19.7066V7.7791C12.4461 7.36649 12.61 6.97077 12.9018 6.67901C13.1935 6.38725 13.5892 6.22333 14.0019 6.22333C14.4145 6.22333 14.8102 6.38725 15.102 6.67901C15.3937 6.97077 15.5576 7.36649 15.5576 7.7791V15.5579C15.5576 15.833 15.6669 16.0968 15.8614 16.2913C16.0559 16.4858 16.3197 16.5951 16.5948 16.5951C16.8699 16.5951 17.1337 16.4858 17.3282 16.2913C17.5227 16.0968 17.632 15.833 17.632 15.5579V5.70475C17.632 5.29213 17.7959 4.89642 18.0877 4.60465C18.3794 4.31289 18.7751 4.14898 19.1877 4.14898C19.6004 4.14898 19.9961 4.31289 20.2878 4.60465C20.5796 4.89642 20.7435 5.29213 20.7435 5.70475V15.5579C20.7435 15.833 20.8528 16.0968 21.0473 16.2913C21.2418 16.4858 21.5056 16.5951 21.7807 16.5951C22.0558 16.5951 22.3196 16.4858 22.5141 16.2913C22.7086 16.0968 22.8179 15.833 22.8179 15.5579V9.85345C22.8179 9.44084 22.9818 9.04512 23.2735 8.75336C23.5653 8.4616 23.961 8.29769 24.3736 8.29769C24.7862 8.29769 25.182 8.4616 25.4737 8.75336C25.7655 9.04512 25.9294 9.44084 25.9294 9.85345V19.7066Z" fill="#C5C5C5"/>
</svg>
