<svg width="34" height="34" viewBox="0 0 34 34" fill="none" xmlns="http://www.w3.org/2000/svg">
    <path d="M27.5197 17.5073C27.298 17.2549 27.1757 16.9305 27.1757 16.5946C27.1757 16.2587 27.298 15.9342 27.5197 15.6819L29.2898 13.6905C29.4849 13.4729 29.606 13.1991 29.6358 12.9085C29.6656 12.6178 29.6026 12.3251 29.4558 12.0725L26.69 7.28764C26.5446 7.03529 26.3233 6.83526 26.0576 6.71607C25.7919 6.59688 25.4954 6.5646 25.2103 6.62385L22.6104 7.14935C22.2796 7.21771 21.9352 7.16261 21.6422 6.99447C21.3492 6.82632 21.1279 6.55676 21.0201 6.23664L20.1765 3.70593C20.0837 3.43125 19.907 3.19268 19.6712 3.02394C19.4355 2.85519 19.1527 2.7648 18.8627 2.76555H13.3311C13.0296 2.74981 12.7311 2.83321 12.4814 3.00302C12.2317 3.17282 12.0445 3.41969 11.9482 3.70593L11.1738 6.23664C11.0659 6.55676 10.8446 6.82632 10.5517 6.99447C10.2587 7.16261 9.91428 7.21771 9.58347 7.14935L6.91447 6.62385C6.64418 6.58566 6.36864 6.62831 6.12255 6.74643C5.87645 6.86455 5.67083 7.05287 5.53157 7.28764L2.76576 12.0725C2.61525 12.3223 2.54757 12.6133 2.57241 12.9039C2.59725 13.1945 2.71332 13.4698 2.90405 13.6905L4.66034 15.6819C4.88204 15.9342 5.00431 16.2587 5.00431 16.5946C5.00431 16.9305 4.88204 17.2549 4.66034 17.5073L2.90405 19.4987C2.71332 19.7193 2.59725 19.9946 2.57241 20.2852C2.54757 20.5758 2.61525 20.8668 2.76576 21.1167L5.53157 25.9015C5.67691 26.1539 5.8982 26.3539 6.1639 26.4731C6.4296 26.5923 6.72615 26.6245 7.01127 26.5653L9.61113 26.0398C9.94194 25.9714 10.2863 26.0265 10.5793 26.1947C10.8723 26.3628 11.0936 26.6324 11.2015 26.9525L12.045 29.4832C12.1413 29.7695 12.3285 30.0163 12.5782 30.1861C12.8279 30.3559 13.1264 30.4393 13.4279 30.4236H18.9595C19.2495 30.4243 19.5323 30.334 19.768 30.1652C20.0038 29.9965 20.1805 29.7579 20.2733 29.4832L21.1169 26.9525C21.2247 26.6324 21.446 26.3628 21.739 26.1947C22.032 26.0265 22.3764 25.9714 22.7072 26.0398L25.3071 26.5653C25.5922 26.6245 25.8887 26.5923 26.1544 26.4731C26.4201 26.3539 26.6414 26.1539 26.7868 25.9015L29.5526 21.1167C29.6994 20.864 29.7624 20.5714 29.7326 20.2807C29.7028 19.99 29.5817 19.7162 29.3866 19.4987L27.5197 17.5073ZM25.4592 19.3604L26.5655 20.605L24.7954 23.675L23.1636 23.3431C22.1676 23.1395 21.1315 23.3087 20.252 23.8186C19.3725 24.3284 18.7108 25.1435 18.3926 26.1089L17.8671 27.6578H14.3268L13.829 26.0813C13.5107 25.1158 12.849 24.3008 11.9695 23.7909C11.09 23.2811 10.054 23.1119 9.05797 23.3155L7.42614 23.6474L5.62837 20.5912L6.73469 19.3466C7.41502 18.5859 7.79113 17.6012 7.79113 16.5807C7.79113 15.5603 7.41502 14.5756 6.73469 13.8149L5.62837 12.5703L7.39848 9.52795L9.03031 9.85984C10.0263 10.0634 11.0624 9.89425 11.9419 9.3844C12.8214 8.87455 13.4831 8.05952 13.8013 7.09404L14.3268 5.53136H17.8671L18.3926 7.10787C18.7108 8.07335 19.3725 8.88838 20.252 9.39823C21.1315 9.90808 22.1676 10.0773 23.1636 9.87367L24.7954 9.54177L26.5655 12.6118L25.4592 13.8564C24.7865 14.6153 24.4151 15.5943 24.4151 16.6084C24.4151 17.6225 24.7865 18.6015 25.4592 19.3604ZM16.0969 11.063C15.0029 11.063 13.9334 11.3874 13.0237 11.9952C12.1141 12.603 11.4051 13.467 10.9864 14.4777C10.5677 15.4885 10.4582 16.6007 10.6716 17.6737C10.8851 18.7468 11.4119 19.7324 12.1855 20.506C12.9591 21.2796 13.9447 21.8065 15.0178 22.0199C16.0908 22.2333 17.203 22.1238 18.2138 21.7051C19.2246 21.2864 20.0885 20.5774 20.6963 19.6678C21.3041 18.7581 21.6285 17.6886 21.6285 16.5946C21.6285 15.1275 21.0458 13.7205 20.0084 12.6831C18.971 11.6458 17.564 11.063 16.0969 11.063ZM16.0969 19.3604C15.5499 19.3604 15.0152 19.1982 14.5603 18.8943C14.1055 18.5903 13.751 18.1584 13.5417 17.653C13.3323 17.1476 13.2776 16.5915 13.3843 16.055C13.491 15.5185 13.7544 15.0257 14.1412 14.6389C14.528 14.2521 15.0208 13.9886 15.5574 13.8819C16.0939 13.7752 16.65 13.83 17.1554 14.0393C17.6608 14.2486 18.0927 14.6031 18.3966 15.058C18.7005 15.5128 18.8627 16.0476 18.8627 16.5946C18.8627 17.3281 18.5713 18.0316 18.0527 18.5503C17.534 19.069 16.8305 19.3604 16.0969 19.3604Z" fill="#C5C5C5"/>
</svg>
