<svg width="23" height="21" viewBox="0 0 23 21" fill="none" xmlns="http://www.w3.org/2000/svg">
    <path d="M3.98484 12.1887C3.64969 11.6786 3.47266 11.0949 3.47266 10.5C3.47266 9.90508 3.64969 9.32137 3.98484 8.81122C4.0879 8.65418 4.22581 8.51855 4.3897 8.41307C4.55359 8.30758 4.73983 8.23457 4.93647 8.19872L6.55892 7.9021C6.65568 7.8846 6.74295 7.83735 6.80617 7.76822L8.78801 5.5956C9.92076 4.3531 10.4881 3.73272 10.9931 3.89985C11.5001 4.06697 11.5001 4.87547 11.5001 6.49247V14.5092C11.5001 16.1253 11.5001 16.933 10.9941 17.101C10.489 17.2672 9.92172 16.6468 8.78897 15.4052L6.80426 13.2317C6.74128 13.1628 6.65438 13.1155 6.55797 13.0978L4.93551 12.8012C4.73887 12.7654 4.55263 12.6924 4.38874 12.5869C4.22485 12.4814 4.0879 12.3458 3.98484 12.1887Z" fill="#4F4F4F" fill-opacity="0.6"/>
    <path d="M13.9307 7.40568C14.8248 8.22205 15.3293 9.32803 15.3341 10.4826C15.339 11.6371 14.8438 12.7466 13.9565 13.5692M17.88 5.5498C19.3106 6.85589 20.1178 8.62533 20.1257 10.4725C20.1336 12.3197 19.3415 14.0948 17.9221 15.4111" stroke="#4F4F4F" stroke-opacity="0.6" stroke-width="2" stroke-linecap="round"/>
</svg>
